<svg xmlns="http://www.w3.org/2000/svg" xmlns:xlink="http://www.w3.org/1999/xlink" data-name="Layer 1" viewBox="0 0 650.93 595.23" id="receptionist"><defs><linearGradient id="c" x1="368.4" x2="442.4" y1="148.32" y2="148.32" gradientUnits="userSpaceOnUse"><stop offset="0" stop-color="#ecc4d7"></stop><stop offset=".42" stop-color="#efd4d1"></stop><stop offset="1" stop-color="#f2eac9"></stop></linearGradient><linearGradient id="a" x1="494.75" x2="176.34" y1="441.87" y2="460.6" gradientUnits="userSpaceOnUse"><stop offset="0"></stop><stop offset=".98" stop-opacity="0"></stop></linearGradient><linearGradient id="d" x1="386.92" x2="326.99" y1="246.69" y2="516.41" xlink:href="#a"></linearGradient><linearGradient id="e" x1="255.34" x2="240.76" y1="361.9" y2="291.24" xlink:href="#a"></linearGradient><linearGradient id="f" x1="241.94" x2="244.34" y1="307.01" y2="276.38" xlink:href="#a"></linearGradient><linearGradient id="b" x1="129.23" x2="129.76" y1="283.64" y2="296.85" gradientUnits="userSpaceOnUse"><stop offset="0" stop-color="#68e1fd"></stop><stop offset=".34" stop-color="#68d4f7"></stop><stop offset="1" stop-color="#69b9eb"></stop></linearGradient><linearGradient id="g" x1="186.71" x2="187.35" y1="281.93" y2="297.58" xlink:href="#b"></linearGradient><linearGradient id="h" x1="243.5" x2="244.69" y1="311.23" y2="340.58" gradientUnits="userSpaceOnUse"><stop offset="0" stop-color="#68e1fd"></stop><stop offset="1" stop-color="#69b9eb"></stop></linearGradient><linearGradient id="i" x1="243.22" x2="226.19" y1="299.47" y2="328.36" xlink:href="#a"></linearGradient><linearGradient id="j" x1="247.32" x2="230.29" y1="301.89" y2="330.77" xlink:href="#a"></linearGradient><linearGradient id="k" x1="251.42" x2="234.39" y1="304.3" y2="333.19" xlink:href="#a"></linearGradient><linearGradient id="l" x1="244.53" x2="227.51" y1="300.24" y2="329.13" xlink:href="#a"></linearGradient><linearGradient id="m" x1="248.63" x2="231.6" y1="302.66" y2="331.55" xlink:href="#a"></linearGradient><linearGradient id="n" x1="252.73" x2="235.7" y1="305.07" y2="333.96" xlink:href="#a"></linearGradient><linearGradient id="o" x1="246.11" x2="229.08" y1="301.17" y2="330.06" xlink:href="#a"></linearGradient><linearGradient id="p" x1="250.21" x2="233.18" y1="303.59" y2="332.48" xlink:href="#a"></linearGradient><linearGradient id="q" x1="254.31" x2="237.28" y1="306.01" y2="334.89" xlink:href="#a"></linearGradient><linearGradient id="r" x1="459.07" x2="452.77" y1="389.85" y2="292.23" xlink:href="#a"></linearGradient><linearGradient id="s" x1="414.07" x2="470.91" y1="325.69" y2="325.69" xlink:href="#c"></linearGradient><linearGradient id="t" x1="590.74" x2="638.32" y1="238.06" y2="238.06" xlink:href="#c"></linearGradient><linearGradient id="u" x1="406.11" x2="410.98" y1="167.09" y2="220.99" xlink:href="#c"></linearGradient><linearGradient id="v" x1="405.03" x2="370.95" y1="185.63" y2="267.71" gradientUnits="userSpaceOnUse"><stop offset="0" stop-color="#ecc4d7"></stop><stop offset=".27" stop-color="#ecc6d6"></stop><stop offset=".37" stop-color="#eecdd4"></stop><stop offset=".42" stop-color="#efd4d1"></stop><stop offset="1" stop-color="#f2eac9"></stop></linearGradient><linearGradient id="w" x1="405.85" x2="435.07" y1="124.87" y2="183.99" xlink:href="#c"></linearGradient><linearGradient id="x" x1="201.18" x2="306.17" y1="399.56" y2="266.92" xlink:href="#a"></linearGradient></defs><path fill="#68e1fd" d="M149.17 289.49h20.17v12.54h-20.17z"></path><path fill="#68e1fd" d="M32.4 545.04c-5 1.47-11.23 5.26-9.46 10.17.84 2.35 3.3 3.66 5.58 4.69a133.41 133.41 0 0 0 61.31 11.51 62 62 0 0 0-35.24 16.69c30.11 6.58 61.21 6.77 92 6.89q117.5.43 235 .06c48.37-.16 96.76-.42 145.09-2.5 32.73-1.41 65.77-3.72 97.1-13.3 12.3-3.75 26.23-11.12 27.15-24l-29.8-8.83c-1.94-.58-4.13-1.37-4.88-3.26-1.4-3.5 3.3-6.54 3.73-10.29.56-5-6-7.29-10.93-7.75-57.76-5.36-115.88.69-173.85 3-71.88 2.8-143.83-.23-215.58-4.7-64.19-4-124.91 3.31-187.22 21.62Z" opacity=".18"></path><path fill="#3f3d56" d="M266.54 120.56c-2 17.67 4.87 36.48-2 52.86-1.8 4.28-4.19 10-.56 12.85a7.74 7.74 0 0 0 4.2 1.36 23 23 0 0 0 17.59-6.08c.39 2.56 3.19 4.17 5.79 4.23s5.07-1 7.54-1.79c12.69-4.09 26.43-1.68 39.59.43 6.1 1 12.89 1.74 18-1.76a38.07 38.07 0 0 0 32.43-.34c-1.42-5.59-6.59-9.43-9-14.67-1.82-4-1.93-8.53-2-12.91q-.24-13.12-.47-26.25c-.19-10.4-.51-21.29-5.62-30.34-4.51-8-10.48-31.1-49.25-31.1-44.32 0-54.7 39.84-56.24 53.51Z"></path><path fill="url(#c)" d="M368.72 145.28c1.22 4.83 5.17 8.63 9.68 10.77s9.54 2.84 14.5 3.3c13.88 1.29 28.47.72 40.85-5.7 4.78-2.48 9.67-7.12 8.47-12.38a4.17 4.17 0 0 0-2.39-3.11 5.66 5.66 0 0 0-2.56-.12c-13.63 1.44-27.32 3.31-41.07 2.81-6.48-.24-13.57-.68-19.75-2.83-2.35-.82-3.28-2.16-5.74-.5s-2.64 5.17-1.99 7.76Z" transform="translate(-83.34 -1.7)"></path><path fill="#3f3d56" d="M285.3 100.3a12.42 12.42 0 0 0-4.26 7 27.22 27.22 0 0 0-.43 8.31 28 28 0 0 0 1.49 7.92 33.94 33.94 0 0 0 4.36 7.47q2.13 3 4.31 6c1.1-3.19 3.19-6 4.34-9.13a59.22 59.22 0 0 0 1.72-7.22c.93-4.12 2.53-8.11 3-12.32.29-2.71.84-9.59-2.66-10.35-3.73-.82-8.84-.02-11.87 2.32Z"></path><path fill="#68e1fd" d="m592.75 355.76-10.09 78.14-2.41 18.4-10.59 81.49a19.32 19.32 0 0 1-19.32 19.31H137.92a19.32 19.32 0 0 1-19.26-19.31l-10-81.5-2.26-18.39-9.74-78.14a19.33 19.33 0 0 1 19.32-19.32h457.46a19.32 19.32 0 0 1 19.31 19.32Z"></path><path fill="url(#a)" d="M676.09 357.46 666 435.6l-2.41 18.4L653 535.49a19.32 19.32 0 0 1-19.32 19.31H221.26A19.32 19.32 0 0 1 202 535.49l-10-81.5-2.26-18.39-9.74-78.14a19.33 19.33 0 0 1 19.32-19.32h457.46a19.32 19.32 0 0 1 19.31 19.32Z" transform="translate(-83.34 -1.7)" style="isolation:isolate"></path><path fill="#68e1fd" d="m592.75 355.76-10.09 78.14-2.41 18.4-10.59 81.49a19.32 19.32 0 0 1-19.32 19.31H203.26a19.32 19.32 0 0 1-19.31-19.31l-10-81.5-2.29-18.39-9.61-78.14a19.32 19.32 0 0 1 19.31-19.32h392.08a19.32 19.32 0 0 1 19.31 19.32Z"></path><path fill="url(#d)" style="isolation:isolate" d="m582.63 433.9-2.39 18.39H108.57l-2.26-18.39h476.32z"></path><path fill="#68e1fd" d="M194.02 325.14v11.3h-65.75v-11.3a23.11 23.11 0 0 1 23.1-23.11h19.55a23.1 23.1 0 0 1 23.1 23.11Z"></path><path fill="url(#e)" d="M277.36 326.84v11.3h-56.68s-.87-7.31 1.22-18.61 16-15.8 16-15.8v-12.55h14.81v12.55h1.58a23.1 23.1 0 0 1 23.07 23.11Z" transform="translate(-83.34 -1.7)" style="isolation:isolate"></path><path fill="#68e1fd" d="M194.9 284.66v9.73l-5.56-1.89-9.91-3.38v-3.82h-42.09v3.81l-7.27 2.48-8.2 2.78v-9.73a15.52 15.52 0 0 1 15.52-15.52h42a15.52 15.52 0 0 1 15.52 15.52Z"></path><path fill="url(#f)" d="M272.68 292.2v2l-9.91-3.38V287h-42.09v3.81l-7.27 2.48v-1.09A12.59 12.59 0 0 1 226 279.61h34.08a12.59 12.59 0 0 1 12.59 12.59Z" transform="translate(-83.34 -1.7)" style="isolation:isolate"></path><path fill="url(#b)" d="M137.34 289.13v2.45l-15.47 5.04v-2.22l15.47-5.27z"></path><path fill="#68e1fd" d="M144.58 291.9a3.76 3.76 0 0 1-2.49 3.53l-21.37 7.71a3.76 3.76 0 0 1-4.83-2.32l-.12-.39a3.74 3.74 0 0 1 2.34-4.76l3.76-1.28 15.47-5.26 2.28-.78a3.76 3.76 0 0 1 4.73 2.28 3.83 3.83 0 0 1 .23 1.27Z"></path><path fill="url(#g)" d="M194.9 294.4v2.22l-15.48-5.04v-2.45l15.48 5.27z"></path><path fill="#68e1fd" d="m201.01 300.43-.14.39a3.74 3.74 0 0 1-4.82 2.32l-21.39-7.71a3.74 3.74 0 0 1-2.47-3.53 3.82 3.82 0 0 1 .22-1.27 3.78 3.78 0 0 1 4.74-2.28l2.27.77 15.47 5.27 3.77 1.28a3.75 3.75 0 0 1 2.35 4.76Z"></path><path fill="url(#h)" d="M255 320.27h-22.49a3 3 0 0 1-3-3l3.82-8.48a3 3 0 0 1 3-3h13.35a3 3 0 0 1 3 3l5.3 8.48a3 3 0 0 1-2.98 3Z" transform="translate(-83.34 -1.7)"></path><path fill="url(#i)" d="M239 309.49h-2.22a1 1 0 0 1-1-1 1 1 0 0 1 1-.95H239a1 1 0 0 1 1 .95 1 1 0 0 1-1 1Z" transform="translate(-83.34 -1.7)" style="isolation:isolate"></path><path fill="url(#j)" d="M244.51 309.49h-2.22a1 1 0 0 1-1-1 1 1 0 0 1 1-.95h2.22a1 1 0 0 1 1 .95 1 1 0 0 1-1 1Z" transform="translate(-83.34 -1.7)" style="isolation:isolate"></path><path fill="url(#k)" d="M250 309.49h-2.22a1 1 0 0 1-1-1 1 1 0 0 1 1-.95H250a1 1 0 0 1 1 .95 1 1 0 0 1-1 1Z" transform="translate(-83.34 -1.7)" style="isolation:isolate"></path><path fill="url(#l)" d="M239 312.49h-2.22a1 1 0 0 1-1-1 1 1 0 0 1 1-.95H239a1 1 0 0 1 1 .95 1 1 0 0 1-1 1Z" transform="translate(-83.34 -1.7)" style="isolation:isolate"></path><path fill="url(#m)" d="M244.51 312.49h-2.22a1 1 0 0 1-1-1 1 1 0 0 1 1-.95h2.22a1 1 0 0 1 1 .95 1 1 0 0 1-1 1Z" transform="translate(-83.34 -1.7)" style="isolation:isolate"></path><path fill="url(#n)" d="M250 312.49h-2.22a1 1 0 0 1-1-1 1 1 0 0 1 1-.95H250a1 1 0 0 1 1 .95 1 1 0 0 1-1 1Z" transform="translate(-83.34 -1.7)" style="isolation:isolate"></path><path fill="url(#o)" d="M239 316.1h-2.22a1 1 0 0 1-1-1 1 1 0 0 1 1-.95H239a1 1 0 0 1 1 .95 1 1 0 0 1-1 1Z" transform="translate(-83.34 -1.7)" style="isolation:isolate"></path><path fill="url(#p)" d="M244.51 316.1h-2.22a1 1 0 0 1-1-1 1 1 0 0 1 1-.95h2.22a1 1 0 0 1 1 .95 1 1 0 0 1-1 1Z" transform="translate(-83.34 -1.7)" style="isolation:isolate"></path><path fill="url(#q)" d="M250 316.1h-2.22a1 1 0 0 1-1-1 1 1 0 0 1 1-.95H250a1 1 0 0 1 1 .95 1 1 0 0 1-1 1Z" transform="translate(-83.34 -1.7)" style="isolation:isolate"></path><path fill="#68e1fd" d="M248.34 336.45a25.77 25.77 0 0 1-25.07-31.74l16.58-69.62s7.68-34.09 30.81-38.49l98.11-.3s18.75-1.76 30.57 27.46c2.89 7.15 28.9 43.78 39 39.65l57-25.56s4.52-5 10.26 1.23 19.79 15.52-2.61 30.59c-29 19.52-71.46 33.71-71.46 33.71s-7.92 3.61-17.79-3.61-20.82-14.57-20.82-14.57l-16.74 51.25Z"></path><path fill="url(#r)" d="M331.68 338.15a25.77 25.77 0 0 1-25.07-31.74l16.58-69.62s7.68-34.09 30.81-38.49l98.11-.3s18.75-1.76 30.57 27.46c2.89 7.15 28.9 43.78 39 39.65l57-25.56s4.52-5 10.26 1.23 19.79 15.52-2.61 30.59c-29 19.52-71.46 33.71-71.46 33.71s-7.92 3.61-17.79-3.61-20.82-14.57-20.82-14.57l-16.74 51.25Z" transform="translate(-83.34 -1.7)" style="isolation:isolate"></path><path fill="url(#s)" d="M421.47 315.82a69.82 69.82 0 0 1 14.39-2.35c4.87-.1 9.9.9 13.89 3.69a2.83 2.83 0 0 1-2.59 1.83c4.12.15 8 1.79 11.8 3.39l10.82 4.6a2.34 2.34 0 0 1 .84.51c.84.92-.29 2.42-1.51 2.72s-2.58.07-3.66.71a4.73 4.73 0 0 1 4.54 1.34c-7.36 5.36-17.13 5.62-26.23 5.64-8.7 0-17.4 0-26.09-.44a4 4 0 0 1-3.05-1 4.08 4.08 0 0 1-.48-3c.44-4.34.67-8.75 1.33-13.06.53-3.33 2.44-4.58 6-4.58Z" transform="translate(-83.34 -1.7)"></path><path fill="#68e1fd" d="m498.81 237.64 4.72-2.83a7.14 7.14 0 0 1 9.29 1.71c2.93 3.71 6.21 9.12 5.72 14.31-.87 9.17-10 9.62-10 9.62s-11.62-10.59-9.73-22.81Z"></path><path fill="url(#t)" d="m599.77 233.59 17.84-9.41a6.9 6.9 0 0 1-4.15 6.36c7.15-1.55 14.49-3.17 20.59-7.22 1.29-.86 2.92-1.86 4.27-1.08A16.16 16.16 0 0 1 634 229l3-2.37c.41.83-.13 1.79-.67 2.54a51.93 51.93 0 0 1-5.59 6.53 5.54 5.54 0 0 1 2.88-.78 25.43 25.43 0 0 1-2.3 3.9 36.87 36.87 0 0 1-34.78 15 6.52 6.52 0 0 1-2.35-.69 5.5 5.5 0 0 1-1.9-2.1 12.33 12.33 0 0 1-.33-11.35c1.43-2.77 5.18-4.68 7.81-6.09Z" transform="translate(-83.34 -1.7)"></path><path fill="url(#u)" d="M383.78 204.19c5.39 4.45 11.07 8.68 17.54 11.34s13.83 3.64 20.48 1.49c9-2.91 15.21-10.85 20.76-18.46-5.4-.76-10.16-4.2-13.44-8.56s-5.23-9.55-6.7-14.8c-.84-3-1.59-6.17-3.58-8.58-2.32-2.79-6-4.14-9.55-4.72a14.76 14.76 0 0 0-8.41.71c-5.56 2.53-7.34 9.33-9.76 14.94a42.59 42.59 0 0 1-11 15.08c-1.89 1.66-5.79 3.12-4.67 5.62.82 1.86 6.65 4.55 8.33 5.94Z" transform="translate(-83.34 -1.7)"></path><path fill="url(#v)" d="M391.12 177.55s3.86 17.13 17.78 16.87 15-14.63 15-14.63Z" transform="translate(-83.34 -1.7)"></path><path fill="url(#w)" d="M383.29 163.39c3.53 7.42 8 14.46 14.25 19 36 26.37 45.45-61.71 44.28-65.85-1.47-5.25-3-10.66-6.27-14.72A25 25 0 0 0 426.2 95a45.29 45.29 0 0 0-32.2-2 27.83 27.83 0 0 0-9.41 4.7c-4.46 3.59-7.49 9.16-9.2 15-5.12 17.56.61 35.3 7.9 50.69Z" transform="translate(-83.34 -1.7)"></path><path fill="#3f3d56" d="M321.3 98.61c11.13 5.29 13.51 21.79 24.87 26.57a22.11 22.11 0 0 0 7.61 1.49 39 39 0 0 0 10.44-1c-1-10.56 1.76-21.58-1.59-31.65-2.46-7.4-8.49-12.94-15-17.17-4.13-2.67-13.88-4.64-22.63-4.55a32.46 32.46 0 0 0-20.16 7c-5.59 4.6-9.09 12.1-7.66 19.2 4.41-1.16 8.45-.88 12.9-1 4.01-.04 7.33-.74 11.22 1.11Z"></path><path fill="url(#x)" style="isolation:isolate" d="m278.62 255.58-12.17 48.52 44.64 2.73-32.47-51.25z"></path><path fill="#68e1fd" d="M327.22 311.51c2.1 3.12 2.66 7.08 2.4 10.84a84.44 84.44 0 0 1-2 11.12c-.21 1-.29 2.29.58 2.83a2.26 2.26 0 0 0 2.46-.49c3.18-2.44 3.94-6.82 4.48-10.79.39-2.89.74-6-.54-8.58-1.1-2.24-3.23-3.76-5.27-5.19-2.74-1.91-5.68-4-9-4.69 2.58 1.44 5.14 2.35 6.89 4.95Z"></path><circle cx="539.67" cy="72.28" r="59.4" fill="#68e1fd"></circle><circle cx="539.67" cy="72.28" r="43.82" fill="#fff"></circle><path fill="#3f3d56" d="M565.84 78.09h-28.65a2.38 2.38 0 0 1-2.39-2.38 2.39 2.39 0 0 1 2.39-2.41h28.65a2.39 2.39 0 0 1 2.39 2.39 2.38 2.38 0 0 1-2.39 2.4Z"></path><path fill="#3f3d56" d="M539.58 47.05v28.66a2.38 2.38 0 0 1-2.39 2.38 2.38 2.38 0 0 1-2.39-2.38V47.05a2.39 2.39 0 0 1 2.39-2.38 2.39 2.39 0 0 1 2.39 2.38Z"></path><path fill="none" stroke="#68e1fd" stroke-miterlimit="10" stroke-width="10.19" d="M5.1 5.1h183.21v126.58H5.1z"></path><path fill="#68e1fd" d="M46.57 40.85h15.65v62.93H46.57zM73.18 75.09h15.65v28.69H73.18zM99.78 57.05h15.65v46.73H99.78zM126.39 40.85h15.65v62.93h-15.65zM39.27 103.78h113.2v3.13H39.27z"></path></svg>